<?xml version="1.0" encoding="UTF-8" standalone="no"?><!DOCTYPE svg PUBLIC "-//W3C//DTD SVG 1.1//EN" "http://www.w3.org/Graphics/SVG/1.1/DTD/svg11.dtd"><svg width="100%" height="100%" viewBox="0 0 144 144" version="1.1" xmlns="http://www.w3.org/2000/svg" xmlns:xlink="http://www.w3.org/1999/xlink" xml:space="preserve" xmlns:serif="http://www.serif.com/" style="fill-rule:evenodd;clip-rule:evenodd;stroke-linecap:round;stroke-linejoin:round;stroke-miterlimit:1.5;"><path d="M127.212,73.307l-48.226,-19.607l-58.985,35.949l48.226,19.607l58.985,-35.949Z" style="fill:#ebebeb;"/><path d="M122.543,74.019l-44.026,-17.899l-43.105,26.27l44.026,17.899l43.105,-26.27Z" style="fill:#565656;"/><path d="M127.212,73.307l-48.226,-19.607l-58.985,35.949l48.226,19.607l58.985,-35.949Z" style="fill:none;stroke:#000;stroke-width:2px;"/><g><g><circle cx="58.063" cy="73.827" r="2.596" style="fill:#ebebeb;stroke:#000;stroke-width:4px;"/><rect x="55.467" y="63.185" width="5.191" height="10.643" style="fill:#ebebeb;stroke:#000;stroke-width:4px;"/></g><g><circle cx="68.727" cy="73.827" r="2.596" style="fill:#ebebeb;stroke:#000;stroke-width:4px;"/><rect x="66.132" y="63.185" width="5.191" height="10.643" style="fill:#ebebeb;stroke:#000;stroke-width:4px;"/></g><g><circle cx="79.391" cy="73.827" r="2.596" style="fill:#ebebeb;stroke:#000;stroke-width:4px;"/><rect x="76.796" y="63.185" width="5.191" height="10.643" style="fill:#ebebeb;stroke:#000;stroke-width:4px;"/></g><g><circle cx="90.056" cy="73.827" r="2.596" style="fill:#ebebeb;stroke:#000;stroke-width:4px;"/><rect x="87.46" y="63.185" width="5.191" height="10.643" style="fill:#ebebeb;stroke:#000;stroke-width:4px;"/></g><g><circle cx="100.72" cy="73.827" r="2.596" style="fill:#ebebeb;stroke:#000;stroke-width:4px;"/><rect x="98.124" y="63.185" width="5.191" height="10.643" style="fill:#ebebeb;stroke:#000;stroke-width:4px;"/></g><g><circle cx="111.384" cy="73.827" r="2.596" style="fill:#ebebeb;stroke:#000;stroke-width:4px;"/><rect x="108.788" y="63.185" width="5.191" height="10.643" style="fill:#ebebeb;stroke:#000;stroke-width:4px;"/></g><g><circle cx="47.399" cy="73.827" r="2.596" style="fill:#ebebeb;stroke:#000;stroke-width:4px;"/><rect x="44.803" y="63.185" width="5.191" height="10.643" style="fill:#ebebeb;stroke:#000;stroke-width:4px;"/></g><rect x="44.803" y="49.815" width="69.176" height="16.378" style="fill:#d8cb8f;stroke:#000;stroke-width:4px;"/></g><g><g><circle cx="58.063" cy="73.827" r="2.596" style="fill:#ebebeb;"/><rect x="55.467" y="63.185" width="5.191" height="10.643" style="fill:#ebebeb;"/></g><g><circle cx="68.727" cy="73.827" r="2.596" style="fill:#ebebeb;"/><rect x="66.132" y="63.185" width="5.191" height="10.643" style="fill:#ebebeb;"/></g><g><circle cx="79.391" cy="73.827" r="2.596" style="fill:#ebebeb;"/><rect x="76.796" y="63.185" width="5.191" height="10.643" style="fill:#ebebeb;"/></g><g><circle cx="90.056" cy="73.827" r="2.596" style="fill:#ebebeb;"/><rect x="87.46" y="63.185" width="5.191" height="10.643" style="fill:#ebebeb;"/></g><g><circle cx="100.72" cy="73.827" r="2.596" style="fill:#ebebeb;"/><rect x="98.124" y="63.185" width="5.191" height="10.643" style="fill:#ebebeb;"/></g><g><circle cx="111.384" cy="73.827" r="2.596" style="fill:#ebebeb;"/><rect x="108.788" y="63.185" width="5.191" height="10.643" style="fill:#ebebeb;"/></g><g><circle cx="47.399" cy="73.827" r="2.596" style="fill:#ebebeb;"/><rect x="44.803" y="63.185" width="5.191" height="10.643" style="fill:#ebebeb;"/></g><rect x="44.803" y="49.815" width="69.176" height="16.378" style="fill:#d8cb8f;"/></g><g opacity="0.89"><circle cx="46.067" cy="71.453" r="8.334" style="fill:#bae3fe;stroke:#000;stroke-width:2px;"/><circle cx="36.444" cy="70.098" r="6.325" style="fill:#bae3fe;stroke:#000;stroke-width:2px;"/><circle cx="54.401" cy="66.539" r="5.157" style="fill:#bae3fe;stroke:#000;stroke-width:2px;"/><circle cx="57.613" cy="74.639" r="6.839" style="fill:#bae3fe;stroke:#000;stroke-width:2px;"/><circle cx="63.123" cy="69.308" r="5.51" style="fill:#bae3fe;stroke:#000;stroke-width:2px;"/><circle cx="35.452" cy="61.382" r="7.316" style="fill:#bae3fe;stroke:#000;stroke-width:2px;"/><circle cx="29.184" cy="50.689" r="4.819" style="fill:#bae3fe;stroke:#000;stroke-width:2px;"/></g></svg>